<svg width="243" height="234" viewBox="0 0 243 234" fill="none" xmlns="http://www.w3.org/2000/svg">
<path d="M189.235 0V36.464C189.235 36.464 188.46 53.5184 170.077 64.89C151.695 76.2616 120.932 90.1817 120.932 90.1817V56.2662C120.932 56.2662 121.897 38.8192 138.152 27.4476C154.407 16.076 189.235 0 189.235 0Z" fill="#006837"/>
<path d="M121.26 90.1816C121.26 90.1816 120.831 82.5663 130.296 71.0981C139.762 59.6238 163.676 40.2686 163.676 40.2686" stroke="white" stroke-width="3" stroke-miterlimit="10"/>
<path d="M165.279 41.7065C167.037 41.7065 168.462 40.3221 168.462 38.6145C168.462 36.9068 167.037 35.5225 165.279 35.5225C163.521 35.5225 162.096 36.9068 162.096 38.6145C162.096 40.3221 163.521 41.7065 165.279 41.7065Z" fill="white" stroke="white" stroke-width="3" stroke-miterlimit="10"/>
<path d="M52.6826 0V36.464C52.6826 36.464 53.4575 53.5184 71.8403 64.89C90.223 76.2616 120.986 90.1817 120.986 90.1817V56.2662C120.986 56.2662 120.02 38.8192 103.766 27.4476C87.5109 16.076 52.6826 0 52.6826 0Z" fill="#006837"/>
<path d="M120.658 90.1816C120.658 90.1816 121.088 82.5663 111.622 71.0981C102.156 59.6238 78.2422 40.2686 78.2422 40.2686" stroke="white" stroke-width="3" stroke-miterlimit="10"/>
<path d="M76.6322 41.7065C78.3901 41.7065 79.8152 40.3221 79.8152 38.6145C79.8152 36.9068 78.3901 35.5225 76.6322 35.5225C74.8743 35.5225 73.4492 36.9068 73.4492 38.6145C73.4492 40.3221 74.8743 41.7065 76.6322 41.7065Z" fill="white" stroke="white" stroke-width="3" stroke-miterlimit="10"/>
<path d="M0 51.7703H37.8665C37.8665 51.7703 55.5768 52.5165 67.3858 70.2184C79.1948 87.9203 93.6503 117.544 93.6503 117.544H58.4303C58.4303 117.544 40.3123 116.614 28.5033 100.961C16.6944 85.3086 0 51.7703 0 51.7703Z" fill="#006837"/>
<path d="M93.6502 117.228C93.6502 117.228 85.742 117.641 73.8327 108.526C61.9171 99.4109 41.8174 76.3824 41.8174 76.3824" stroke="white" stroke-width="3" stroke-miterlimit="10"/>
<path d="M43.3101 74.8392C43.3101 73.1464 41.8725 71.7741 40.0991 71.7741C38.3258 71.7741 36.8882 73.1464 36.8882 74.8392C36.8882 76.532 38.3258 77.9043 40.0991 77.9043C41.8725 77.9043 43.3101 76.532 43.3101 74.8392Z" fill="white" stroke="white" stroke-width="3" stroke-miterlimit="10"/>
<path d="M0 183.266H37.8665C37.8665 183.266 55.5768 182.519 67.3858 164.818C79.1948 147.116 93.6503 117.492 93.6503 117.492H58.4303C58.4303 117.492 40.3123 118.422 28.5033 134.075C16.6944 149.727 0 183.266 0 183.266Z" fill="#006837"/>
<path d="M93.6502 117.807C93.6502 117.807 85.742 117.394 73.8327 126.509C61.9171 135.624 41.8174 158.652 41.8174 158.652" stroke="white" stroke-width="3" stroke-miterlimit="10"/>
<path d="M43.3101 160.202C43.3101 158.51 41.8725 157.137 40.0991 157.137C38.3258 157.137 36.8882 158.51 36.8882 160.202C36.8882 161.895 38.3258 163.268 40.0991 163.268C41.8725 163.268 43.3101 161.895 43.3101 160.202Z" fill="white" stroke="white" stroke-width="3" stroke-miterlimit="10"/>
<path d="M53.76 233.998L53.76 197.534C53.76 197.534 54.5349 180.48 72.9176 169.108C91.3004 157.736 122.063 143.816 122.063 143.816L122.063 177.732C122.063 177.732 121.098 195.179 104.843 206.55C88.5883 217.922 53.76 233.998 53.76 233.998Z" fill="#006837"/>
<path d="M121.735 143.816C121.735 143.816 122.164 151.432 112.699 162.9C103.233 174.374 79.3191 193.729 79.3191 193.729" stroke="white" stroke-width="3" stroke-miterlimit="10"/>
<path d="M77.7159 192.292C75.958 192.292 74.5329 193.676 74.5329 195.384C74.5329 197.091 75.958 198.476 77.7159 198.476C79.4738 198.476 80.8989 197.091 80.8989 195.384C80.8989 193.676 79.4738 192.292 77.7159 192.292Z" fill="white" stroke="white" stroke-width="3" stroke-miterlimit="10"/>
<path d="M190.313 233.998V197.534C190.313 197.534 189.538 180.48 171.155 169.108C152.773 157.736 122.01 143.816 122.01 143.816L122.01 177.732C122.01 177.732 122.975 195.179 139.23 206.55C155.485 217.922 190.313 233.998 190.313 233.998Z" fill="#006837"/>
<path d="M122.337 143.816C122.337 143.816 121.908 151.432 131.373 162.9C140.839 174.374 164.753 193.729 164.753 193.729" stroke="white" stroke-width="3" stroke-miterlimit="10"/>
<path d="M166.363 192.292C164.605 192.292 163.18 193.676 163.18 195.384C163.18 197.091 164.605 198.476 166.363 198.476C168.121 198.476 169.546 197.091 169.546 195.384C169.546 193.676 168.121 192.292 166.363 192.292Z" fill="white" stroke="white" stroke-width="3" stroke-miterlimit="10"/>
<path d="M242.995 182.228H205.129C205.129 182.228 187.418 181.482 175.609 163.78C163.8 146.078 149.345 116.454 149.345 116.454L184.565 116.454C184.565 116.454 202.683 117.384 214.492 133.037C226.301 148.689 242.995 182.228 242.995 182.228Z" fill="#006837"/>
<path d="M149.345 116.77C149.345 116.77 157.253 116.357 169.162 125.472C181.078 134.587 201.178 157.616 201.178 157.616" stroke="white" stroke-width="3" stroke-miterlimit="10"/>
<path d="M199.685 159.159C199.685 160.852 201.123 162.224 202.896 162.224C204.669 162.224 206.107 160.852 206.107 159.159C206.107 157.466 204.669 156.094 202.896 156.094C201.123 156.094 199.685 157.466 199.685 159.159Z" fill="white" stroke="white" stroke-width="3" stroke-miterlimit="10"/>
<path d="M242.996 50.7324L205.129 50.7324C205.129 50.7324 187.419 51.4786 175.61 69.1805C163.801 86.8824 149.345 116.506 149.345 116.506L184.565 116.506C184.565 116.506 202.683 115.576 214.492 99.9235C226.301 84.2707 242.996 50.7324 242.996 50.7324Z" fill="#006837"/>
<path d="M149.345 116.191C149.345 116.191 157.254 116.604 169.163 107.489C181.079 98.3742 201.178 75.3457 201.178 75.3457" stroke="white" stroke-width="3" stroke-miterlimit="10"/>
<path d="M199.686 73.7956C199.686 75.4884 201.123 76.8607 202.896 76.8607C204.67 76.8607 206.107 75.4884 206.107 73.7956C206.107 72.1027 204.67 70.7305 202.896 70.7305C201.123 70.7305 199.686 72.1027 199.686 73.7956Z" fill="white" stroke="white" stroke-width="3" stroke-miterlimit="10"/>
</svg>
