<svg width="384" height="43" viewBox="0 0 384 43" fill="none" xmlns="http://www.w3.org/2000/svg">
<path d="M56.196 34V10.2H60.616V34H56.196ZM58.236 24.242V20.23H70.51V24.242H58.236ZM58.236 14.28V10.2H71.972V14.28H58.236ZM82.4015 34.34C80.9282 34.34 79.5908 33.932 78.3895 33.116C77.1882 32.3 76.2248 31.1893 75.4995 29.784C74.7742 28.3787 74.4115 26.7807 74.4115 24.99C74.4115 23.1993 74.7742 21.6013 75.4995 20.196C76.2248 18.7907 77.2108 17.6913 78.4575 16.898C79.7042 16.1047 81.1095 15.708 82.6735 15.708C83.5802 15.708 84.4075 15.844 85.1555 16.116C85.9035 16.3653 86.5608 16.728 87.1275 17.204C87.6942 17.68 88.1588 18.224 88.5215 18.836C88.9068 19.448 89.1675 20.1053 89.3035 20.808L88.3855 20.57V16.082H92.6015V34H88.3515V29.716L89.3375 29.546C89.1788 30.158 88.8842 30.7587 88.4535 31.348C88.0455 31.9147 87.5242 32.4247 86.8895 32.878C86.2775 33.3087 85.5862 33.66 84.8155 33.932C84.0675 34.204 83.2628 34.34 82.4015 34.34ZM83.5575 30.634C84.5322 30.634 85.3935 30.396 86.1415 29.92C86.8895 29.444 87.4675 28.7867 87.8755 27.948C88.3062 27.0867 88.5215 26.1007 88.5215 24.99C88.5215 23.902 88.3062 22.9387 87.8755 22.1C87.4675 21.2613 86.8895 20.604 86.1415 20.128C85.3935 19.652 84.5322 19.414 83.5575 19.414C82.5828 19.414 81.7215 19.652 80.9735 20.128C80.2482 20.604 79.6815 21.2613 79.2735 22.1C78.8655 22.9387 78.6615 23.902 78.6615 24.99C78.6615 26.1007 78.8655 27.0867 79.2735 27.948C79.6815 28.7867 80.2482 29.444 80.9735 29.92C81.7215 30.396 82.5828 30.634 83.5575 30.634ZM97.45 34V16.082H101.564L101.632 21.794L101.054 20.502C101.303 19.5953 101.734 18.7793 102.346 18.054C102.958 17.3287 103.661 16.762 104.454 16.354C105.27 15.9233 106.12 15.708 107.004 15.708C107.389 15.708 107.752 15.742 108.092 15.81C108.455 15.878 108.749 15.9573 108.976 16.048L107.854 20.638C107.605 20.502 107.299 20.3887 106.936 20.298C106.573 20.2073 106.211 20.162 105.848 20.162C105.281 20.162 104.737 20.2753 104.216 20.502C103.717 20.706 103.275 21.0007 102.89 21.386C102.505 21.7713 102.199 22.2247 101.972 22.746C101.768 23.2447 101.666 23.8113 101.666 24.446V34H97.45ZM111.693 34V16.082H115.807L115.875 19.686L115.195 19.958C115.399 19.3687 115.705 18.8247 116.113 18.326C116.521 17.8047 117.008 17.3627 117.575 17C118.141 16.6147 118.742 16.32 119.377 16.116C120.011 15.8893 120.657 15.776 121.315 15.776C122.289 15.776 123.151 15.9347 123.899 16.252C124.669 16.5467 125.304 17.0227 125.803 17.68C126.324 18.3373 126.709 19.176 126.959 20.196L126.312 20.06L126.585 19.516C126.834 18.972 127.185 18.4847 127.639 18.054C128.092 17.6007 128.602 17.204 129.169 16.864C129.735 16.5013 130.325 16.2293 130.937 16.048C131.571 15.8667 132.195 15.776 132.807 15.776C134.167 15.776 135.3 16.048 136.207 16.592C137.113 17.136 137.793 17.9633 138.247 19.074C138.7 20.1847 138.927 21.556 138.927 23.188V34H134.711V23.46C134.711 22.5533 134.586 21.8053 134.337 21.216C134.11 20.6267 133.747 20.196 133.249 19.924C132.773 19.6293 132.172 19.482 131.447 19.482C130.88 19.482 130.336 19.584 129.815 19.788C129.316 19.9693 128.885 20.2413 128.522 20.604C128.16 20.944 127.877 21.3407 127.673 21.794C127.469 22.2473 127.367 22.746 127.367 23.29V34H123.151V23.426C123.151 22.5647 123.026 21.8507 122.777 21.284C122.527 20.6947 122.165 20.2527 121.689 19.958C121.213 19.6407 120.635 19.482 119.955 19.482C119.388 19.482 118.855 19.584 118.357 19.788C117.858 19.9693 117.427 20.23 117.065 20.57C116.702 20.91 116.419 21.3067 116.215 21.76C116.011 22.2133 115.909 22.712 115.909 23.256V34H111.693ZM164.409 34.34C162.687 34.34 161.111 34.0453 159.683 33.456C158.255 32.8667 157.02 32.028 155.977 30.94C154.935 29.8293 154.119 28.526 153.529 27.03C152.963 25.5113 152.679 23.8567 152.679 22.066C152.679 20.3433 152.985 18.7453 153.597 17.272C154.209 15.7987 155.059 14.5067 156.147 13.396C157.235 12.2853 158.505 11.424 159.955 10.812C161.406 10.2 162.981 9.894 164.681 9.894C165.837 9.894 166.959 10.064 168.047 10.404C169.135 10.744 170.133 11.22 171.039 11.832C171.946 12.4213 172.705 13.1127 173.317 13.906L170.495 17C169.906 16.388 169.294 15.878 168.659 15.47C168.047 15.0393 167.401 14.722 166.721 14.518C166.064 14.2913 165.384 14.178 164.681 14.178C163.639 14.178 162.653 14.3707 161.723 14.756C160.817 15.1413 160.023 15.6853 159.343 16.388C158.686 17.0907 158.165 17.9293 157.779 18.904C157.394 19.856 157.201 20.9213 157.201 22.1C157.201 23.3013 157.383 24.3893 157.745 25.364C158.131 26.3387 158.663 27.1773 159.343 27.88C160.046 28.5827 160.873 29.1267 161.825 29.512C162.8 29.8747 163.865 30.056 165.021 30.056C165.769 30.056 166.495 29.954 167.197 29.75C167.9 29.546 168.546 29.2627 169.135 28.9C169.747 28.5147 170.303 28.0727 170.801 27.574L172.977 31.076C172.433 31.688 171.708 32.2433 170.801 32.742C169.895 33.2407 168.875 33.6373 167.741 33.932C166.631 34.204 165.52 34.34 164.409 34.34ZM184.999 34.34C183.209 34.34 181.611 33.9433 180.205 33.15C178.8 32.334 177.689 31.2233 176.873 29.818C176.057 28.4127 175.649 26.8147 175.649 25.024C175.649 23.2333 176.057 21.6353 176.873 20.23C177.689 18.8247 178.8 17.7253 180.205 16.932C181.611 16.116 183.209 15.708 184.999 15.708C186.767 15.708 188.354 16.116 189.759 16.932C191.165 17.7253 192.264 18.8247 193.057 20.23C193.873 21.6353 194.281 23.2333 194.281 25.024C194.281 26.8147 193.873 28.4127 193.057 29.818C192.264 31.2233 191.165 32.334 189.759 33.15C188.354 33.9433 186.767 34.34 184.999 34.34ZM184.999 30.634C185.974 30.634 186.835 30.3847 187.583 29.886C188.354 29.3873 188.955 28.7187 189.385 27.88C189.839 27.0413 190.054 26.0893 190.031 25.024C190.054 23.936 189.839 22.9727 189.385 22.134C188.955 21.2953 188.354 20.638 187.583 20.162C186.835 19.6633 185.974 19.414 184.999 19.414C184.025 19.414 183.141 19.6633 182.347 20.162C181.577 20.638 180.976 21.3067 180.545 22.168C180.115 23.0067 179.899 23.9587 179.899 25.024C179.899 26.0893 180.115 27.0413 180.545 27.88C180.976 28.7187 181.577 29.3873 182.347 29.886C183.141 30.3847 184.025 30.634 184.999 30.634ZM198.022 34V16.082H202.102L202.17 19.754L201.388 20.162C201.615 19.346 202.057 18.6093 202.714 17.952C203.372 17.272 204.154 16.728 205.06 16.32C205.967 15.912 206.896 15.708 207.848 15.708C209.208 15.708 210.342 15.98 211.248 16.524C212.178 17.068 212.869 17.884 213.322 18.972C213.798 20.06 214.036 21.42 214.036 23.052V34H209.854V23.358C209.854 22.4513 209.73 21.7033 209.48 21.114C209.231 20.502 208.846 20.06 208.324 19.788C207.803 19.4933 207.168 19.3573 206.42 19.38C205.808 19.38 205.242 19.482 204.72 19.686C204.222 19.8673 203.78 20.1393 203.394 20.502C203.032 20.842 202.737 21.2387 202.51 21.692C202.306 22.1453 202.204 22.644 202.204 23.188V34H200.13C199.722 34 199.337 34 198.974 34C198.634 34 198.317 34 198.022 34ZM218.741 34V16.082H222.821L222.889 19.754L222.107 20.162C222.334 19.346 222.776 18.6093 223.433 17.952C224.09 17.272 224.872 16.728 225.779 16.32C226.686 15.912 227.615 15.708 228.567 15.708C229.927 15.708 231.06 15.98 231.967 16.524C232.896 17.068 233.588 17.884 234.041 18.972C234.517 20.06 234.755 21.42 234.755 23.052V34H230.573V23.358C230.573 22.4513 230.448 21.7033 230.199 21.114C229.95 20.502 229.564 20.06 229.043 19.788C228.522 19.4933 227.887 19.3573 227.139 19.38C226.527 19.38 225.96 19.482 225.439 19.686C224.94 19.8673 224.498 20.1393 224.113 20.502C223.75 20.842 223.456 21.2387 223.229 21.692C223.025 22.1453 222.923 22.644 222.923 23.188V34H220.849C220.441 34 220.056 34 219.693 34C219.353 34 219.036 34 218.741 34ZM247.858 34.34C245.976 34.34 244.31 33.9433 242.86 33.15C241.432 32.3567 240.31 31.28 239.494 29.92C238.7 28.5373 238.304 26.962 238.304 25.194C238.304 23.7887 238.53 22.508 238.984 21.352C239.437 20.196 240.06 19.1987 240.854 18.36C241.67 17.4987 242.633 16.8413 243.744 16.388C244.877 15.912 246.112 15.674 247.45 15.674C248.628 15.674 249.728 15.9007 250.748 16.354C251.768 16.8073 252.652 17.4307 253.4 18.224C254.148 18.9947 254.714 19.924 255.1 21.012C255.508 22.0773 255.7 23.2447 255.678 24.514L255.644 25.976H241.126L240.344 23.12H252.142L251.598 23.698V22.95C251.53 22.2473 251.303 21.6353 250.918 21.114C250.532 20.57 250.034 20.1507 249.422 19.856C248.832 19.5387 248.175 19.38 247.45 19.38C246.339 19.38 245.398 19.5953 244.628 20.026C243.88 20.4567 243.313 21.08 242.928 21.896C242.542 22.6893 242.35 23.6867 242.35 24.888C242.35 26.044 242.588 27.0527 243.064 27.914C243.562 28.7753 244.254 29.444 245.138 29.92C246.044 30.3733 247.098 30.6 248.3 30.6C249.138 30.6 249.909 30.464 250.612 30.192C251.314 29.92 252.074 29.4327 252.89 28.73L254.964 31.62C254.352 32.1867 253.649 32.674 252.856 33.082C252.085 33.4673 251.269 33.7733 250.408 34C249.546 34.2267 248.696 34.34 247.858 34.34ZM267.066 34.34C265.388 34.34 263.881 33.932 262.544 33.116C261.206 32.3 260.152 31.1893 259.382 29.784C258.611 28.3787 258.226 26.792 258.226 25.024C258.226 23.256 258.611 21.6693 259.382 20.264C260.152 18.8587 261.206 17.748 262.544 16.932C263.881 16.116 265.388 15.708 267.066 15.708C268.675 15.708 270.137 16.014 271.452 16.626C272.766 17.238 273.786 18.088 274.512 19.176L272.2 21.964C271.86 21.488 271.429 21.0573 270.908 20.672C270.386 20.2867 269.831 19.9807 269.242 19.754C268.652 19.5273 268.063 19.414 267.474 19.414C266.476 19.414 265.581 19.6633 264.788 20.162C264.017 20.638 263.405 21.3067 262.952 22.168C262.498 23.0067 262.272 23.9587 262.272 25.024C262.272 26.0893 262.498 27.0413 262.952 27.88C263.428 28.7187 264.062 29.3873 264.856 29.886C265.649 30.3847 266.533 30.634 267.508 30.634C268.097 30.634 268.664 30.5433 269.208 30.362C269.774 30.158 270.307 29.8747 270.806 29.512C271.304 29.1493 271.769 28.696 272.2 28.152L274.512 30.974C273.741 31.9713 272.676 32.7873 271.316 33.422C269.978 34.034 268.562 34.34 267.066 34.34ZM279.648 34V11.526H283.83V34H279.648ZM276.112 19.958V16.082H287.74V19.958H276.112Z" fill="black"/>
<path d="M48.0001 4V18.9606C48.0001 18.9606 47.7277 25.9577 41.2659 30.6233C34.8042 35.2888 23.9906 41 23.9906 41V27.085C23.9906 27.085 24.33 19.9269 30.0438 15.2613C35.7575 10.5957 48.0001 4 48.0001 4Z" fill="#006837"/>
<path d="M24.1058 41C24.1058 41 23.9549 37.8755 27.2822 33.1703C30.6094 28.4626 39.0156 20.5215 39.0156 20.5215" stroke="white" stroke-width="3" stroke-miterlimit="10"/>
<path d="M39.5793 21.1112C40.1972 21.1112 40.6982 20.5432 40.6982 19.8426C40.6982 19.1419 40.1972 18.574 39.5793 18.574C38.9614 18.574 38.4604 19.1419 38.4604 19.8426C38.4604 20.5432 38.9614 21.1112 39.5793 21.1112Z" fill="white" stroke="white" stroke-width="3" stroke-miterlimit="10"/>
<path d="M0 4V18.9606C0 18.9606 0.272385 25.9577 6.73413 30.6233C13.1959 35.2888 24.0095 41 24.0095 41V27.085C24.0095 27.085 23.67 19.9269 17.9563 15.2613C12.2425 10.5957 0 4 0 4Z" fill="#006837"/>
<path d="M23.8944 41C23.8944 41 24.0453 37.8755 20.718 33.1703C17.3908 28.4626 8.98462 20.5215 8.98462 20.5215" stroke="white" stroke-width="3" stroke-miterlimit="10"/>
<path d="M8.41866 21.1112C9.03659 21.1112 9.53753 20.5432 9.53753 19.8426C9.53753 19.1419 9.03659 18.574 8.41866 18.574C7.80073 18.574 7.2998 19.1419 7.2998 19.8426C7.2998 20.5432 7.80073 21.1112 8.41866 21.1112Z" fill="white" stroke="white" stroke-width="3" stroke-miterlimit="10"/>
</svg>
