<svg width="54" height="16" viewBox="0 0 54 16" fill="none" xmlns="http://www.w3.org/2000/svg">
<path d="M1 7C0.447715 7 0 7.44772 0 8C0 8.55228 0.447715 9 1 9V7ZM53.7167 8.70711C54.1072 8.31658 54.1072 7.68342 53.7167 7.29289L47.3528 0.928932C46.9622 0.538408 46.3291 0.538408 45.9385 0.928932C45.548 1.31946 45.548 1.95262 45.9385 2.34315L51.5954 8L45.9385 13.6569C45.548 14.0474 45.548 14.6805 45.9385 15.0711C46.3291 15.4616 46.9622 15.4616 47.3528 15.0711L53.7167 8.70711ZM1 8V9H53.0096V8V7H1V8Z" fill="#133524"/>
</svg>
